#!OML:ASF H:\Not Pregnant\Project 1\Capture day 1\Session 1\non-pregnant.ASF
:FULLY-SPECIFIED
:DEGREES
916
root -4.91499 16.3015 34.6423 129.392 -83.9194 -116.713
lowerback -7.27671 2.05218 4.95534
upperback -6.34848 2.26078 0.778597
thorax -2.343 0.871482 -1.84604
lowerneck 15.2792 -7.72004 -32.5278
upperneck -3.62044 -17.2834 40.4835
head 3.63941 -10.7647 20.8636
rclavicle -5.95112e-015 -1.68967e-014
rhumerus -38.2069 6.8544 -89.9042
rradius 23.7728
rwrist 30.1806
rhand -6.72568 6.1318
rfingers 7.12502
rthumb 19.1346 -22.9469
lclavicle -5.95112e-015 -1.68967e-014
lhumerus -46.6773 -11.8625 94.8227
lradius 33.547
lwrist 31.9301
lhand -14.6332 -14.2152
lfingers 7.12502
lthumb 11.5185 15.4483
rfemur -12.9805 -19.8594 28.4357
rtibia 6.6441
rfoot -12.9018 23.965
rtoes -10.0302
lfemur -21.3278 4.13431 -13.6819
ltibia 18.7168
lfoot -12.253 -6.48804
ltoes -18.2195
917
root -4.91209 16.3013 34.6413 128.83 -83.9465 -116.15
lowerback -7.28666 2.03521 4.99007
upperback -6.36021 2.23541 0.796816
thorax -2.3512 0.857077 -1.84787
lowerneck 15.2995 -7.72281 -32.5184
upperneck -3.66511 -17.2942 40.5448
head 3.63724 -10.7787 20.8991
rclavicle -2.86995e-014 -1.31198e-014
rhumerus -38.2677 6.66449 -89.7758
rradius 23.8456
rwrist 29.9762
rhand -6.81377 6.10164
rfingers 7.12502
rthumb 19.0499 -22.9854
lclavicle -2.86995e-014 -1.31198e-014
lhumerus -46.6511 -11.8537 94.9176
lradius 33.6094
lwrist 31.9919
lhand -14.7574 -14.2782
lfingers 7.12502
lthumb 11.3987 15.392
rfemur -12.993 -19.9208 28.4613
rtibia 6.64518
rfoot -12.9212 23.9718
rtoes -10.0315
lfemur -21.362 4.11759 -13.6725
ltibia 18.7278
lfoot -12.2467 -6.53374
ltoes -18.1878
918
root -4.90909 16.3009 34.6396 128.198 -83.9571 -115.514
lowerback -7.29378 2.0253 5.04296
upperback -6.37365 2.21869 0.812215
thorax -2.36157 0.846187 -1.86234
lowerneck 15.3258 -7.72726 -32.5144
upperneck -3.70663 -17.3153 40.6219
head 3.64248 -10.8005 20.9447
rclavicle -8.36138e-015 -4.77083e-015
rhumerus -38.3101 6.45263 -89.6594
rradius 23.9021
rwrist 29.8119
rhand -6.91234 6.06976
rfingers 7.12502
rthumb 18.9551 -23.0266
lclavicle -8.36138e-015 -4.77083e-015
lhumerus -46.6261 -11.896 95.0248
lradius 33.677
lwrist 32.0416
lhand -14.8489 -14.3327
lfingers 7.12502
lthumb 11.3105 15.3423
rfemur -13.0076 -19.9767 28.5099
rtibia 6.6478
rfoot -12.9435 23.9772
rtoes -10.0342
lfemur -21.3986 4.11137 -13.6426
ltibia 18.7392
lfoot -12.2409 -6.58452
ltoes -18.173
919
root -4.90608 16.3006 34.6384 127.597 -83.9799 -114.907
lowerback -7.30371 2.01627 5.09963
upperback -6.3886 2.20274 0.811886
thorax -2.37124 0.835257 -1.89507
lowerneck 15.3574 -7.73207 -32.5101
upperneck -3.7422 -17.3446 40.7147
head 3.65433 -10.829 20.9996
rclavicle -1.86858e-014 -1.94809e-014
rhumerus -38.3322 6.22464 -89.5596
rradius 23.945
rwrist 29.6798
rhand -6.99201 6.04882
rfingers 7.12502
rthumb 18.8785 -23.0551
lclavicle -1.86858e-014 -1.94809e-014
lhumerus -46.5993 -11.9771 95.1311
lradius 33.7457
lwrist 32.0762
lhand -14.9027 -14.3832
lfingers 7.12502
lthumb 11.2585 15.2947
rfemur -13.0353 -20.0378 28.544
rtibia 6.66574
rfoot -12.9636 23.9844
rtoes -10.0166
lfemur -21.4361 4.10483 -13.6294
ltibia 18.7442
lfoot -12.2318 -6.63903
ltoes -18.1538
920
root -4.90317 16.3004 34.6377 127.043 -84.0144 -114.345
lowerback -7.31832 2.01113 5.15733
upperback -6.40849 2.1915 0.794974
thorax -2.38258 0.826138 -1.94518
lowerneck 15.4103 -7.73461 -32.489
upperneck -3.77947 -17.3745 40.8099
head 3.66039 -10.8604 21.0547
rclavicle 1.16041e-014 7.95139e-016
rhumerus -38.3465 5.97652 -89.4705
rradius 23.9776
rwrist 29.5873
rhand -7.06657 6.039
rfingers 7.12502
rthumb 18.8068 -23.0718
lclavicle 1.16041e-014 7.95139e-016
lhumerus -46.5808 -12.1044 95.242
lradius 33.8161
lwrist 32.0995
lhand -14.9227 -14.4296
lfingers 7.12502
lthumb 11.2393 15.2493
rfemur -13.0849 -20.1018 28.5651
rtibia 6.71697
rfoot -13.0002 23.9865
rtoes -10.0047
lfemur -21.4701 4.10059 -13.6345
ltibia 18.7364
lfoot -12.2185 -6.69859
ltoes -18.1528
921
root -4.90037 16.3003 34.6376 126.525 -84.0626 -113.817
lowerback -7.33895 2.01331 5.21735
upperback -6.43171 2.18941 0.756338
thorax -2.39259 0.821061 -2.01841
lowerneck 15.4907 -7.73815 -32.4427
upperneck -3.82514 -17.4087 40.9096
head 3.65866 -10.8975 21.1089
rclavicle 1.90833e-014 3.65764e-014
rhumerus -38.3488 5.68186 -89.3861
rradius 23.9969
rwrist 29.5387
rhand -7.11708 6.05264
rfingers 7.12502
rthumb 18.7582 -23.0629
lclavicle 1.90833e-014 3.65764e-014
lhumerus -46.5684 -12.2861 95.3545
lradius 33.8824
lwrist 32.0847
lhand -14.9101 -14.4762
lfingers 7.12502
lthumb 11.2514 15.2021
rfemur -13.156 -20.1704 28.5712
rtibia 6.80371
rfoot -13.0473 23.9853
rtoes -9.97815
lfemur -21.4976 4.09244 -13.6587
ltibia 18.7135
lfoot -12.1993 -6.75727
ltoes -18.1674
922
root -4.89796 16.3004 34.6386 126.127 -84.1303 -113.406
lowerback -7.37018 2.01125 5.26489
upperback -6.45574 2.18143 0.710801
thorax -2.39814 0.81338 -2.09187
lowerneck 15.5675 -7.74204 -32.379
upperneck -3.8647 -17.4354 40.9859
head 3.65007 -10.9279 21.1453
rclavicle -1.59649e-014 -1.13307e-014
rhumerus -38.3485 5.44972 -89.324
rradius 24.023
rwrist 29.4743
rhand -7.14356 6.07461
rfingers 7.12502
rthumb 18.7327 -23.0434
lclavicle -1.59649e-014 -1.13307e-014
lhumerus -46.565 -12.5009 95.4889
lradius 33.9524
lwrist 32.069
lhand -14.8895 -14.5232
lfingers 7.12502
lthumb 11.2714 15.154
rfemur -13.245 -20.2411 28.5471
rtibia 6.91643
rfoot -13.1002 23.9834
rtoes -9.94281
lfemur -21.5179 4.06716 -13.7111
ltibia 18.6774
lfoot -12.173 -6.8021
ltoes -18.1633
923
root -4.89577 16.3005 34.6391 125.695 -84.1882 -112.963
lowerback -7.40444 1.99748 5.30481
upperback -6.47694 2.15795 0.687926
thorax -2.40129 0.798669 -2.13844
lowerneck 15.6205 -7.74359 -32.3405
upperneck -3.88675 -17.4557 41.0388
head 3.64695 -10.95 21.1719
rclavicle 1.52816e-015 9.34288e-015
rhumerus -38.3335 5.30143 -89.2716
rradius 24.0493
rwrist 29.4025
rhand -7.14154 6.11684
rfingers 7.12502
rthumb 18.7347 -23.001
lclavicle 1.52816e-015 9.34288e-015
lhumerus -46.5612 -12.7016 95.6499
lradius 34.0208
lwrist 32.0089
lhand -14.8825 -14.5639
lfingers 7.12502
lthumb 11.2781 15.1129
rfemur -13.335 -20.3076 28.5354
rtibia 7.03685
rfoot -13.1552 23.9793
rtoes -9.89918
lfemur -21.5316 4.04723 -13.752
ltibia 18.6337
lfoot -12.1457 -6.84704
ltoes -18.1783
924
root -4.89382 16.3008 34.6399 125.34 -84.2479 -112.595
lowerback -7.44354 1.96655 5.32933
upperback -6.493 2.11201 0.687724
thorax -2.39935 0.773888 -2.15409
lowerneck 15.627 -7.74437 -32.33
upperneck -3.8817 -17.4662 41.0601
head 3.65376 -10.9589 21.1821
rclavicle -4.46023e-015 1.03368e-014
rhumerus -38.2981 5.25182 -89.2309
rradius 24.0739
rwrist 29.3332
rhand -7.11757 6.16059
rfingers 7.12502
rthumb 18.7577 -22.955
lclavicle -4.46023e-015 1.03368e-014
lhumerus -46.5485 -12.8635 95.8301
lradius 34.091
lwrist 31.9228
lhand -14.8797 -14.5866
lfingers 7.12502
lthumb 11.2808 15.09
rfemur -13.4151 -20.3693 28.5133
rtibia 7.13843
rfoot -13.2028 23.975
rtoes -9.86591
lfemur -21.5445 4.01932 -13.7987
ltibia 18.5925
lfoot -12.1209 -6.87604
ltoes -18.2269
925
root -4.89207 16.3011 34.6404 124.985 -84.298 -112.229
lowerback -7.48352 1.92656 5.34306
upperback -6.50475 2.05448 0.71139
thorax -2.39442 0.744286 -2.13965
lowerneck 15.6053 -7.74671 -32.3458
upperneck -3.86131 -17.4751 41.0605
head 3.66897 -10.9615 21.1824
rclavicle -2.22763e-014 -5.96354e-016
rhumerus -38.2412 5.26203 -89.1911
rradius 24.0921
rwrist 29.2844
rhand -7.08284 6.20138
rfingers 7.12502
rthumb 18.7911 -22.911
lclavicle -2.22763e-014 -5.96354e-016
lhumerus -46.5227 -12.9946 96.0245
lradius 34.1606
lwrist 31.8521
lhand -14.8383 -14.5973
lfingers 7.12502
lthumb 11.3207 15.0771
rfemur -13.4727 -20.4258 28.4969
rtibia 7.20344
rfoot -13.233 23.9733
rtoes -9.83901
lfemur -21.5596 3.98696 -13.8333
ltibia 18.5621
lfoot -12.1011 -6.89529
ltoes -18.2895
